<?xml version="1.0" standalone="no"?>
<!DOCTYPE svg PUBLIC "-//W3C//DTD SVG 20010904//EN"
 "http://www.w3.org/TR/2001/REC-SVG-20010904/DTD/svg10.dtd">
<svg version="1.0" xmlns="http://www.w3.org/2000/svg"
 width="1000.000000pt" height="1000.000000pt" viewBox="0 0 1000.000000 1000.000000"
 preserveAspectRatio="xMidYMid meet">
<metadata>
Created by potrace 1.14, written by Peter Selinger 2001-2017
</metadata>
<g transform="translate(0.000000,1000.000000) scale(0.100000,-0.100000)"
fill="#000000" stroke="none">
<path d="M1827 9808 c3 -17 2 -19 -5 -9 -8 11 -32 14 -91 14 -44 -1 -86 -5
-92 -9 -8 -4 -9 -3 -5 4 4 7 2 12 -3 12 -6 0 -11 -6 -11 -12 0 -9 -4 -8 -11 2
-8 12 -12 12 -16 2 -4 -10 -8 -10 -19 -1 -11 9 -14 9 -14 0 0 -8 -5 -9 -19 -1
-27 14 -34 13 -28 -4 4 -10 1 -13 -8 -9 -8 3 -12 10 -9 15 4 6 -1 6 -13 -1
-14 -7 -24 -7 -33 2 -10 9 -11 9 -6 0 5 -9 -1 -12 -23 -9 -17 2 -31 0 -31 -4
0 -3 -20 -6 -44 -6 -24 1 -42 -2 -39 -6 4 -8 -11 -12 -34 -9 -7 1 -13 -3 -13
-9 0 -6 -5 -8 -11 -4 -6 3 -15 0 -20 -7 -7 -12 -9 -12 -9 0 0 9 -4 10 -12 4
-7 -6 -26 -13 -41 -17 -18 -4 -25 -11 -20 -19 5 -8 2 -8 -9 1 -14 11 -18 10
-27 -5 -8 -14 -10 -15 -11 -3 0 10 -3 11 -8 4 -7 -11 -32 -22 -44 -20 -4 0
-14 -8 -23 -19 -9 -11 -14 -14 -10 -8 4 9 1 11 -9 7 -9 -3 -16 -10 -16 -15 0
-5 -9 -9 -20 -9 -11 0 -20 -5 -20 -11 0 -5 -4 -7 -10 -4 -5 3 -10 1 -10 -4 0
-6 -9 -11 -21 -11 -11 0 -17 -4 -14 -10 3 -5 -3 -10 -14 -10 -12 0 -21 -5 -21
-11 0 -5 -5 -7 -12 -3 -8 5 -9 2 -4 -12 4 -10 4 -15 0 -11 -4 4 -14 1 -22 -6
-13 -10 -14 -9 -7 3 4 8 -1 6 -12 -5 -11 -11 -18 -24 -15 -30 3 -5 -2 -4 -12
4 -14 12 -17 12 -14 1 2 -8 -2 -14 -8 -15 -15 0 -44 -31 -37 -39 4 -3 -1 -6
-10 -6 -10 0 -17 -5 -17 -10 0 -6 -8 -14 -17 -17 -25 -9 -74 -59 -66 -67 4 -3
2 -6 -3 -6 -6 0 -19 -7 -30 -16 -10 -8 -12 -12 -4 -8 8 4 5 -3 -7 -15 -13 -12
-23 -26 -23 -31 0 -6 -7 -10 -15 -10 -8 0 -15 -6 -15 -14 0 -8 -9 -17 -19 -21
-13 -4 -18 -13 -16 -25 4 -18 -6 -25 -28 -21 -5 1 -6 -3 -3 -8 4 -5 1 -13 -5
-17 -8 -4 -7 -9 2 -15 10 -6 8 -9 -8 -9 -15 0 -21 -5 -17 -13 3 -8 -2 -20 -11
-27 -8 -7 -15 -19 -15 -27 0 -8 -5 -11 -12 -7 -7 4 -10 4 -6 0 9 -11 -12 -67
-23 -60 -5 3 -9 -7 -9 -21 0 -17 -4 -24 -12 -19 -7 5 -8 3 -3 -6 4 -7 3 -15
-3 -19 -7 -4 -13 -17 -15 -30 -2 -12 -10 -27 -18 -32 -12 -7 -12 -9 1 -9 12 0
12 -2 2 -9 -7 -4 -14 -20 -16 -35 -2 -16 -9 -31 -16 -36 -10 -6 -9 -9 1 -13
10 -4 10 -6 2 -6 -8 -1 -13 -14 -13 -32 0 -16 -4 -28 -8 -25 -5 3 -8 -8 -7
-24 1 -17 -2 -30 -6 -30 -4 0 -6 -9 -4 -20 2 -11 0 -20 -6 -20 -5 0 -9 -5 -9
-11 0 -5 6 -7 13 -3 6 4 4 -2 -6 -13 -13 -15 -15 -23 -7 -28 9 -6 9 -10 -1
-16 -10 -6 -11 -9 -1 -9 6 0 12 -5 12 -11 0 -5 -5 -7 -12 -3 -8 5 -9 2 -5 -9
3 -9 2 -19 -4 -22 -5 -4 -6 -12 -2 -18 10 -16 11 -47 2 -47 -9 0 -6 -20 4 -37
5 -8 3 -13 -3 -13 -13 0 -9 -32 5 -42 7 -5 6 -11 -1 -15 -10 -8 -11 -63 -1
-80 3 -5 2 -15 -3 -23 -5 -9 -4 -20 3 -29 10 -12 9 -13 -3 -6 -13 8 -13 7 -1
-8 7 -9 10 -17 5 -17 -5 0 -9 -23 -9 -50 0 -28 4 -50 9 -50 4 0 3 -6 -3 -14
-8 -10 -9 -16 -1 -21 6 -3 8 -11 4 -16 -11 -18 -11 -69 0 -69 6 0 4 -5 -4 -10
-13 -9 -13 -10 0 -10 9 0 11 -3 5 -8 -9 -6 -11 -22 -5 -47 1 -5 1 -14 0 -20
-7 -32 -5 -65 4 -65 6 0 4 -5 -4 -10 -13 -9 -13 -10 0 -10 9 0 11 -3 5 -8 -13
-9 -13 -85 0 -94 6 -5 5 -8 -4 -8 -11 0 -11 -3 -1 -15 7 -8 8 -15 3 -15 -5 0
-10 -7 -10 -15 0 -8 4 -15 8 -15 5 0 5 -11 0 -23 -5 -13 -6 -30 -1 -37 5 -7 4
-24 0 -36 -6 -14 -5 -26 1 -29 5 -4 6 -11 3 -17 -12 -19 -11 -62 0 -70 8 -6 8
-10 0 -15 -10 -8 -11 -63 -1 -80 3 -5 2 -15 -3 -23 -5 -9 -4 -20 3 -29 10 -12
9 -13 -3 -6 -13 8 -13 7 -1 -8 7 -9 10 -17 5 -17 -5 0 -9 -23 -9 -50 0 -28 4
-50 9 -50 4 0 3 -6 -3 -14 -8 -10 -9 -16 -1 -21 6 -3 8 -11 4 -16 -11 -18 -11
-69 0 -69 6 0 4 -5 -4 -10 -13 -9 -13 -10 0 -10 9 0 11 -3 5 -8 -9 -6 -11 -22
-5 -47 1 -5 1 -14 0 -20 -7 -32 -5 -65 4 -65 6 0 4 -5 -4 -10 -13 -9 -13 -10
0 -10 9 0 11 -3 5 -8 -13 -9 -13 -85 0 -94 6 -5 5 -8 -4 -8 -11 0 -11 -3 -1
-15 7 -8 8 -15 3 -15 -5 0 -10 -7 -10 -15 0 -8 4 -15 8 -15 5 0 5 -11 0 -23
-5 -13 -6 -30 -1 -37 5 -7 4 -24 0 -36 -6 -14 -5 -26 1 -29 5 -4 6 -11 3 -17
-12 -19 -11 -62 0 -70 8 -6 8 -10 0 -15 -10 -8 -11 -63 -1 -80 3 -5 2 -15 -3
-23 -5 -9 -4 -20 3 -29 10 -12 9 -13 -3 -6 -13 8 -13 7 -1 -8 7 -9 10 -17 5
-17 -5 0 -9 -23 -9 -50 0 -28 4 -50 9 -50 4 0 3 -6 -3 -14 -8 -10 -9 -16 -1
-21 6 -3 8 -11 4 -16 -11 -18 -11 -69 0 -69 6 0 4 -5 -4 -10 -13 -9 -13 -10 0
-10 9 0 11 -3 5 -8 -9 -6 -11 -22 -5 -47 1 -5 1 -14 0 -20 -7 -32 -5 -65 4
-65 6 0 4 -5 -4 -10 -13 -9 -13 -10 0 -10 9 0 11 -3 5 -8 -13 -9 -13 -85 0
-94 6 -5 5 -8 -4 -8 -11 0 -11 -3 -1 -15 7 -8 8 -15 3 -15 -5 0 -10 -7 -10
-15 0 -8 4 -15 8 -15 5 0 5 -11 0 -23 -5 -13 -6 -30 -1 -37 5 -7 4 -24 0 -36
-6 -14 -5 -26 1 -29 5 -4 6 -11 3 -17 -12 -19 -11 -62 0 -70 8 -6 8 -10 0 -15
-10 -8 -11 -63 -1 -80 3 -5 2 -15 -3 -23 -5 -9 -4 -20 3 -29 10 -12 9 -13 -3
-6 -13 8 -13 7 -1 -8 7 -9 10 -17 5 -17 -5 0 -9 -23 -9 -50 0 -28 4 -50 9 -50
4 0 3 -6 -3 -14 -8 -10 -9 -16 -1 -21 6 -3 8 -11 4 -16 -11 -18 -11 -69 0 -69
6 0 4 -5 -4 -10 -13 -9 -13 -10 0 -10 9 0 11 -3 5 -8 -9 -6 -11 -22 -5 -47 1
-5 1 -14 0 -20 -7 -32 -5 -65 4 -65 6 0 4 -5 -4 -10 -13 -9 -13 -10 0 -10 9 0
11 -3 5 -8 -13 -9 -13 -85 0 -94 6 -5 5 -8 -4 -8 -11 0 -11 -3 -1 -15 7 -8 8
-15 3 -15 -5 0 -10 -7 -10 -15 0 -8 4 -15 8 -15 5 0 5 -11 0 -23 -5 -13 -6
-30 -1 -37 5 -7 4 -24 0 -36 -6 -14 -5 -26 1 -29 5 -4 6 -11 3 -17 -12 -19
-11 -62 0 -70 8 -6 8 -10 0 -15 -10 -8 -11 -63 -1 -80 3 -5 2 -15 -3 -23 -5
-9 -4 -20 3 -29 10 -12 9 -13 -3 -6 -13 8 -13 7 -1 -8 7 -9 10 -17 5 -17 -5 0
-9 -23 -9 -50 0 -28 4 -50 9 -50 4 0 3 -6 -3 -14 -8 -10 -9 -16 -1 -21 6 -3 8
-11 4 -16 -11 -18 -11 -69 0 -69 6 0 4 -5 -4 -10 -13 -9 -13 -10 0 -10 9 0 11
-3 5 -8 -9 -6 -11 -22 -5 -47 1 -5 1 -14 0 -20 -7 -32 -5 -65 4 -65 6 0 4 -5
-4 -10 -13 -9 -13 -10 0 -10 9 0 11 -3 5 -8 -13 -9 -13 -85 0 -94 6 -5 5 -8
-4 -8 -11 0 -11 -3 -1 -15 7 -8 8 -15 3 -15 -5 0 -10 -7 -10 -15 0 -8 4 -15 8
-15 5 0 5 -11 0 -23 -5 -13 -6 -30 -1 -37 5 -7 4 -24 0 -36 -6 -14 -5 -26 1
-29 5 -4 6 -11 3 -17 -12 -19 -11 -62 0 -70 8 -6 8 -10 0 -15 -10 -8 -11 -63
-1 -80 3 -5 2 -15 -3 -23 -5 -9 -4 -20 3 -29 10 -12 9 -13 -3 -6 -13 8 -13 7
-1 -8 7 -9 10 -17 5 -17 -5 0 -9 -23 -9 -50 0 -28 4 -50 9 -50 4 0 3 -6 -3
-14 -8 -10 -9 -16 -1 -21 6 -3 8 -11 4 -16 -11 -18 -11 -69 0 -69 6 0 4 -5 -4
-10 -13 -9 -13 -10 0 -10 9 0 11 -3 5 -8 -9 -6 -11 -22 -5 -47 1 -5 1 -14 0
-20 -7 -32 -5 -65 4 -65 6 0 4 -5 -4 -10 -13 -9 -13 -10 0 -10 9 0 11 -3 5 -8
-13 -9 -13 -85 0 -94 6 -5 5 -8 -4 -8 -11 0 -11 -3 -1 -15 7 -8 8 -15 3 -15
-5 0 -10 -7 -10 -15 0 -8 4 -15 8 -15 5 0 5 -11 0 -23 -5 -13 -6 -30 -1 -37 5
-7 4 -24 0 -36 -6 -14 -5 -26 1 -29 5 -4 6 -11 3 -17 -12 -19 -11 -62 0 -70 8
-6 8 -10 0 -15 -10 -8 -11 -63 -1 -80 3 -5 2 -15 -3 -23 -5 -9 -4 -20 3 -29
10 -12 9 -13 -3 -6 -13 8 -13 7 -1 -8 7 -9 10 -17 5 -17 -5 0 -9 -23 -9 -50 0
-28 4 -50 9 -50 4 0 3 -6 -3 -14 -8 -10 -9 -16 -1 -21 6 -3 8 -11 4 -16 -11
-18 -11 -69 0 -69 6 0 4 -5 -4 -10 -13 -9 -13 -10 0 -10 9 0 11 -3 5 -8 -9 -6
-11 -22 -5 -47 1 -5 1 -14 0 -20 -7 -32 -5 -65 4 -65 6 0 4 -5 -4 -10 -13 -9
-13 -10 0 -10 9 0 11 -3 5 -8 -13 -9 -13 -85 0 -94 6 -5 5 -8 -4 -8 -11 0 -11
-3 -1 -15 7 -8 8 -15 3 -15 -5 0 -10 -7 -10 -15 0 -8 4 -15 8 -15 5 0 5 -11 0
-23 -5 -13 -6 -30 -1 -37 5 -7 4 -24 0 -36 -6 -14 -5 -26 1 -29 5 -4 6 -11 3
-17 -12 -19 -11 -62 0 -70 8 -6 8 -10 1 -15 -12 -9 -13 -52 -2 -71 5 -7 3 -12
-5 -12 -10 0 -10 -2 -1 -8 8 -5 9 -13 3 -22 -5 -9 -5 -20 3 -28 6 -8 10 -27 9
-43 -1 -16 2 -38 7 -48 7 -12 6 -22 -1 -29 -9 -9 -7 -17 7 -32 14 -15 15 -20
4 -21 -8 0 -6 -4 6 -9 13 -6 15 -9 5 -9 -13 -1 -13 -2 0 -11 13 -8 13 -10 1
-10 -11 0 -9 -4 5 -15 13 -10 15 -14 5 -15 -12 0 -12 -3 0 -17 8 -10 16 -31
18 -48 2 -16 8 -33 13 -36 6 -4 7 -12 3 -19 -6 -9 -4 -11 5 -5 9 6 10 2 5 -15
-5 -15 -4 -20 4 -16 7 4 11 -1 11 -13 0 -12 4 -21 10 -21 5 0 7 -7 4 -15 -4
-8 -1 -15 6 -15 7 0 10 -7 6 -15 -3 -8 -1 -15 4 -15 6 0 10 -7 10 -15 0 -8 5
-15 11 -15 6 0 9 -9 6 -19 -3 -14 -1 -18 10 -14 11 4 14 2 11 -8 -3 -8 4 -20
16 -27 20 -13 20 -13 1 -8 -19 6 -18 5 2 -13 12 -10 19 -21 16 -25 -4 -3 -1
-6 6 -6 7 0 10 -4 7 -8 -3 -5 4 -14 14 -22 10 -8 17 -17 14 -22 -3 -4 0 -8 6
-8 6 0 15 -12 20 -26 6 -15 14 -22 22 -18 7 4 8 3 4 -4 -4 -7 -2 -12 4 -12 6
0 8 -5 5 -10 -3 -6 1 -10 9 -10 9 0 16 -7 16 -15 0 -8 9 -19 20 -25 11 -6 20
-15 20 -21 0 -13 25 -39 38 -39 5 0 24 -18 43 -40 19 -22 42 -40 52 -40 10 0
16 -4 13 -9 -3 -5 1 -12 10 -15 8 -3 12 -11 8 -17 -5 -8 -3 -9 6 -4 8 5 18 1
27 -10 7 -11 13 -16 13 -12 0 4 10 -1 22 -13 12 -11 28 -20 35 -20 7 0 13 -4
13 -10 0 -5 7 -10 15 -10 7 0 18 -8 24 -17 5 -10 11 -16 13 -14 6 8 48 -11 48
-22 0 -7 4 -6 10 3 8 13 10 13 10 -2 0 -12 5 -15 17 -11 11 4 14 3 9 -5 -5 -8
1 -13 16 -14 13 0 29 -2 37 -2 8 -1 16 -7 19 -14 2 -6 8 -10 13 -6 5 3 9 0 9
-6 0 -6 5 -8 10 -5 6 3 10 2 10 -4 0 -6 7 -8 15 -5 8 4 15 1 15 -6 0 -9 4 -9
17 1 10 8 14 9 10 2 -4 -6 -3 -14 3 -18 5 -3 10 0 10 7 0 9 3 9 10 -2 5 -8 15
-15 22 -16 7 0 23 -2 36 -2 14 -1 21 -6 16 -13 -5 -8 -1 -8 13 0 13 6 23 7 30
0 5 -5 31 -11 56 -12 26 -1 47 -5 47 -9 0 -8 21 -5 39 6 10 6 12 5 7 -2 -4 -7
-1 -12 8 -12 9 0 16 6 16 13 0 9 2 9 8 1 4 -8 34 -11 79 -10 39 0 69 -3 66 -7
-3 -5 3 -4 14 2 14 7 24 7 33 -2 10 -9 11 -9 6 1 -9 16 6 16 23 0 11 -11 13
-10 7 0 -4 6 -2 12 3 12 6 0 11 -4 11 -10 0 -5 5 -10 11 -10 6 0 8 7 5 16 -5
14 -4 15 8 5 8 -6 18 -11 22 -10 5 1 11 0 14 -1 26 -10 41 -7 36 7 -5 13 -4
13 8 4 8 -6 18 -11 22 -10 5 1 11 0 14 -1 26 -10 41 -7 36 7 -5 13 -4 13 8 4
8 -6 18 -11 22 -10 5 1 11 0 14 -1 26 -10 41 -7 36 7 -5 13 -4 14 8 4 8 -7 20
-10 25 -7 5 4 12 2 16 -4 4 -6 10 -8 15 -5 16 10 109 12 103 2 -3 -5 3 -4 14
2 14 7 24 7 33 -2 10 -10 12 -8 6 7 -5 16 -4 17 9 6 9 -7 25 -10 41 -6 18 5
24 3 19 -5 -6 -8 -2 -8 12 0 14 7 24 7 33 -2 10 -9 11 -9 6 1 -9 16 6 16 23
-1 11 -9 13 -9 7 1 -4 6 -2 12 3 12 6 0 11 -4 11 -10 0 -5 5 -10 11 -10 6 0 8
7 5 16 -5 14 -4 15 8 5 8 -6 18 -11 22 -10 5 1 11 0 14 -1 26 -10 41 -7 36 7
-5 13 -4 13 8 4 8 -6 18 -11 22 -10 5 1 11 0 14 -1 26 -10 41 -7 36 7 -5 13
-4 13 8 4 8 -6 18 -11 22 -10 5 1 11 0 14 -1 26 -10 41 -7 36 7 -5 13 -4 14 8
4 8 -7 20 -10 25 -7 5 4 12 2 16 -4 4 -6 10 -8 15 -5 16 10 109 12 103 2 -3
-5 3 -4 14 2 14 7 24 7 33 -2 10 -10 12 -8 6 7 -5 16 -4 17 9 6 9 -7 25 -10
41 -6 18 5 24 3 19 -5 -6 -8 -2 -8 12 0 14 7 24 7 33 -2 10 -9 11 -9 6 0 -9
17 6 17 23 1 11 -11 13 -11 7 0 -4 6 -2 12 3 12 6 0 11 -4 11 -10 0 -5 5 -10
11 -10 6 0 8 7 5 16 -5 14 -4 15 8 5 8 -6 18 -11 22 -10 5 1 11 0 14 -1 26
-10 41 -7 36 7 -5 13 -4 13 8 4 8 -6 18 -11 22 -10 5 1 11 0 14 -1 26 -10 41
-7 36 7 -5 13 -4 13 8 4 8 -6 18 -11 22 -10 5 1 11 0 14 -1 26 -10 41 -7 36 7
-5 13 -4 14 8 4 8 -7 20 -10 25 -7 5 4 12 2 16 -4 4 -6 10 -8 15 -5 16 10 109
12 103 2 -3 -5 3 -4 14 2 14 7 24 7 33 -2 10 -10 12 -8 6 7 -5 16 -4 17 9 6 9
-7 25 -10 41 -6 18 5 24 3 19 -5 -6 -8 -2 -8 12 0 14 7 24 7 33 -2 10 -9 11
-9 6 1 -9 16 6 16 23 -1 11 -9 13 -9 7 1 -4 6 -2 12 3 12 6 0 11 -4 11 -10 0
-5 5 -10 11 -10 6 0 8 7 5 16 -5 14 -4 15 8 5 8 -6 18 -11 22 -10 5 1 11 0 14
-1 26 -10 41 -7 36 7 -5 13 -4 13 8 4 8 -6 18 -11 22 -10 5 1 11 0 14 -1 26
-10 41 -7 36 7 -5 13 -4 13 8 4 8 -6 18 -11 22 -10 5 1 11 0 14 -1 26 -10 41
-7 36 7 -5 13 -4 14 8 4 8 -7 20 -10 25 -7 5 4 12 2 16 -4 4 -6 10 -8 15 -5
16 10 109 12 103 2 -3 -5 3 -4 14 2 14 7 24 7 33 -2 10 -10 12 -8 6 7 -5 16
-4 17 9 6 9 -7 25 -10 41 -6 18 5 24 3 19 -5 -6 -8 -2 -8 12 0 14 7 24 7 33
-2 10 -9 11 -9 6 1 -4 6 -3 12 1 12 5 0 15 -6 22 -12 11 -11 13 -11 7 0 -4 6
-2 12 3 12 6 0 11 -4 11 -10 0 -5 5 -10 11 -10 6 0 8 7 5 16 -5 14 -4 15 8 5
8 -6 18 -11 22 -10 5 1 11 0 14 -1 26 -10 41 -7 36 7 -5 13 -4 13 8 4 8 -6 18
-11 22 -10 5 1 11 0 14 -1 26 -10 41 -7 36 7 -5 13 -4 13 8 4 8 -6 18 -11 22
-10 5 1 11 0 14 -1 26 -10 41 -7 36 7 -5 13 -4 14 8 4 8 -7 20 -10 25 -7 5 4
12 2 16 -4 4 -6 10 -8 15 -5 16 10 109 12 103 2 -3 -5 3 -4 14 2 14 7 24 7 33
-2 10 -10 12 -8 6 7 -5 16 -4 17 9 6 9 -7 25 -10 41 -6 18 5 24 3 19 -5 -6 -8
-2 -8 12 0 14 7 24 7 33 -2 10 -9 11 -9 6 0 -4 7 -3 13 1 13 5 0 15 -6 22 -13
11 -9 13 -9 7 0 -4 7 -2 13 3 13 6 0 11 -4 11 -10 0 -5 5 -10 11 -10 6 0 8 7
5 16 -5 14 -4 15 8 5 8 -6 18 -11 22 -10 5 1 11 0 14 -1 26 -10 41 -7 36 7 -5
13 -4 13 8 4 8 -6 18 -11 22 -10 5 1 11 0 14 -1 26 -10 41 -7 36 7 -5 13 -4
13 8 4 8 -6 18 -11 22 -10 5 1 11 0 14 -1 26 -10 41 -7 36 7 -5 13 -4 14 8 4
8 -7 20 -10 25 -7 5 4 12 2 16 -4 4 -6 10 -8 15 -5 16 10 109 12 103 2 -3 -5
3 -4 14 2 14 7 24 7 33 -2 10 -10 12 -8 6 7 -5 16 -4 17 9 6 9 -7 25 -10 41
-6 18 5 24 3 19 -5 -6 -8 -2 -8 12 0 14 7 24 7 33 -2 10 -9 11 -9 6 1 -9 16 6
16 23 0 11 -10 13 -10 7 -1 -4 7 -2 13 3 13 6 0 11 -4 11 -10 0 -5 5 -10 11
-10 6 0 8 7 5 16 -5 14 -4 15 8 5 8 -6 18 -11 22 -10 5 1 11 0 14 -1 26 -10
41 -7 36 7 -5 13 -4 13 8 4 8 -6 18 -11 22 -10 5 1 11 0 14 -1 26 -10 41 -7
36 7 -5 13 -4 13 8 4 8 -6 18 -11 22 -10 5 1 11 0 14 -1 26 -10 41 -7 36 7 -5
13 -4 14 8 4 8 -7 20 -10 25 -7 5 4 12 2 16 -4 4 -6 10 -8 15 -5 16 10 109 12
103 2 -3 -5 3 -4 14 2 14 7 24 7 33 -2 10 -10 12 -8 6 7 -5 16 -4 17 9 6 9 -7
25 -10 41 -6 18 5 24 3 19 -5 -6 -8 -2 -8 12 0 14 7 24 7 33 -2 10 -9 11 -9 6
0 -9 17 6 17 23 1 11 -11 13 -10 7 0 -4 6 -2 12 3 12 6 0 11 -4 11 -10 0 -5 5
-10 11 -10 6 0 8 7 5 16 -5 14 -4 15 8 5 8 -6 18 -11 22 -10 5 1 11 0 14 -1
26 -10 41 -7 36 7 -5 13 -4 13 8 4 8 -6 18 -11 22 -10 5 1 11 0 14 -1 26 -10
41 -7 36 7 -5 13 -4 13 8 4 8 -6 18 -11 22 -10 5 1 11 0 14 -1 26 -10 41 -7
36 7 -5 13 -4 14 8 4 8 -7 20 -10 25 -7 5 4 12 2 16 -4 4 -6 10 -8 15 -5 16
10 109 12 103 2 -3 -5 3 -4 14 2 14 7 24 7 33 -2 10 -10 12 -8 6 7 -5 16 -4
17 9 6 9 -7 25 -10 41 -6 18 5 24 3 19 -5 -6 -8 -2 -8 12 0 14 7 24 7 33 -2
10 -9 11 -9 6 0 -9 17 6 17 23 1 11 -11 13 -10 7 0 -4 6 -2 12 3 12 6 0 11 -4
11 -10 0 -5 5 -10 11 -10 6 0 8 7 5 16 -5 14 -4 15 8 5 8 -6 18 -11 22 -10 5
1 11 0 14 -1 26 -10 41 -7 36 7 -5 13 -4 13 8 4 8 -6 18 -11 22 -10 5 1 11 0
14 -1 26 -10 41 -7 36 7 -5 13 -4 13 8 4 8 -6 18 -11 22 -10 5 1 11 0 14 -1
26 -10 41 -7 36 7 -5 13 -4 14 8 4 8 -7 20 -10 25 -7 5 4 12 2 16 -4 4 -6 10
-8 15 -5 16 10 109 12 103 2 -3 -5 3 -4 14 2 14 7 24 7 33 -2 10 -10 12 -8 6
7 -5 16 -4 17 9 6 9 -7 25 -10 41 -6 18 5 24 3 19 -5 -6 -8 -2 -8 12 0 14 7
24 7 33 -2 10 -9 11 -9 6 1 -4 6 -3 12 1 12 5 0 15 -6 22 -12 11 -11 13 -11 7
0 -4 6 -2 12 3 12 6 0 11 -4 11 -10 0 -5 5 -10 11 -10 6 0 8 7 5 16 -5 14 -4
15 8 5 8 -6 18 -11 22 -10 5 1 11 0 14 -1 26 -10 41 -7 36 7 -5 13 -4 13 8 4
8 -6 18 -11 22 -10 5 1 11 0 14 -1 26 -10 41 -7 36 7 -5 13 -4 13 8 4 8 -6 18
-11 22 -10 5 1 11 0 14 -1 26 -10 41 -7 36 7 -5 13 -4 14 8 4 8 -7 20 -10 25
-7 5 4 12 2 16 -4 4 -6 10 -8 15 -5 16 10 109 12 103 2 -3 -5 3 -4 14 2 14 7
24 7 33 -2 10 -10 12 -8 6 7 -5 16 -4 17 9 6 9 -7 25 -10 41 -6 18 5 24 3 19
-5 -6 -8 -2 -8 12 0 14 7 24 7 33 -2 10 -9 11 -9 6 0 -9 17 6 17 23 1 11 -10
13 -10 7 -1 -4 7 -2 13 3 13 6 0 11 -4 11 -10 0 -5 5 -10 11 -10 6 0 8 7 5 16
-5 14 -4 15 8 5 8 -6 18 -11 22 -10 5 1 11 0 14 -1 26 -10 41 -7 36 7 -5 13
-4 13 8 4 8 -6 18 -11 22 -10 5 1 11 0 14 -1 26 -10 41 -7 36 7 -5 13 -4 14 9
3 9 -7 18 -10 22 -7 3 4 12 2 19 -4 8 -7 14 -7 19 1 5 8 11 8 21 -1 8 -7 14
-7 14 -1 0 5 7 13 16 16 8 3 12 2 9 -3 -3 -6 8 -9 24 -9 19 1 28 5 24 12 -5 8
-3 8 8 1 16 -12 39 -13 57 -2 7 5 12 3 12 -4 0 -8 4 -8 15 1 9 7 18 10 22 7 3
-4 13 -1 21 6 13 10 14 9 7 -3 -8 -13 -7 -13 8 -1 9 7 17 10 17 5 0 -5 5 -2
10 6 6 9 10 11 10 3 0 -7 7 -10 15 -7 8 4 12 10 9 15 -3 5 0 9 5 9 6 0 11 -6
11 -12 0 -8 7 -5 15 6 11 14 15 16 15 5 1 -10 5 -9 15 5 10 13 15 15 15 6 0
-10 4 -10 18 2 9 8 29 14 44 13 15 -1 26 3 25 9 -1 6 6 10 17 8 10 -2 15 1 12
6 -3 5 0 10 7 9 34 -1 48 4 41 15 -5 8 -2 9 9 5 10 -4 17 -1 17 5 0 6 3 8 7 5
3 -4 17 0 30 8 13 9 23 13 23 10 0 -3 11 6 25 21 15 17 25 22 25 13 1 -10 5
-8 15 5 8 11 15 16 15 12 0 -4 7 0 16 8 8 9 20 13 26 10 6 -4 8 -2 4 4 -3 6 3
13 14 17 11 3 20 11 20 16 0 5 11 14 25 19 14 5 25 14 25 20 0 5 5 10 11 10
12 0 54 31 57 43 1 4 5 6 8 5 3 -2 10 5 15 15 6 9 17 17 24 17 8 0 15 9 15 21
0 11 4 18 9 14 6 -3 15 4 21 15 6 12 16 18 23 13 7 -4 6 1 -2 11 -12 15 -12
17 0 14 8 -2 13 2 12 9 -2 8 4 10 14 6 9 -4 14 -2 10 4 -3 5 3 17 14 26 11 10
17 23 13 29 -4 6 -3 9 2 6 9 -6 26 8 35 27 2 6 7 9 11 8 4 -2 4 5 1 14 -5 12
-3 14 7 8 10 -6 12 -4 7 9 -5 13 -3 17 7 13 10 -4 13 -1 10 7 -3 8 0 17 5 21
6 3 9 11 5 16 -3 5 0 8 8 7 7 -2 12 3 10 10 -1 7 4 15 12 18 9 3 12 12 9 21
-5 12 -3 14 7 8 10 -6 12 -4 7 8 -3 9 -1 17 4 19 5 2 11 13 12 25 0 12 3 20 6
18 5 -6 31 42 34 64 1 9 5 21 8 26 4 6 9 22 13 38 3 15 10 27 15 27 4 0 7 11
6 25 -2 14 1 25 7 25 6 0 8 11 6 25 -3 14 -1 25 4 25 5 0 6 4 3 10 -3 5 -2 10
4 10 6 0 8 7 5 15 -4 8 -1 15 6 15 10 0 10 3 0 15 -8 9 -9 15 -2 15 6 0 9 9 7
20 -2 11 1 22 6 26 6 3 5 12 -3 22 -11 13 -11 14 1 7 11 -6 13 -2 8 23 -4 18
-3 32 2 32 5 0 7 14 5 31 -3 20 0 28 8 23 7 -5 8 -3 2 7 -11 19 -12 119 0 119
4 0 2 8 -5 17 -12 15 -12 16 1 8 12 -7 13 -6 4 6 -12 15 -12 78 0 97 4 7 3 12
-1 12 -5 0 -8 16 -8 35 0 19 5 35 10 35 6 0 6 3 0 8 -14 9 -13 65 0 74 7 5 6
8 0 8 -6 0 -11 22 -10 50 0 27 4 50 9 50 5 0 2 8 -5 17 -12 14 -12 16 0 8 11
-6 12 -5 5 6 -11 18 -12 129 0 129 5 0 2 8 -5 17 -12 15 -12 16 1 8 12 -7 13
-6 4 6 -12 15 -12 78 0 97 4 7 3 12 -1 12 -5 0 -9 22 -8 50 0 27 4 50 9 50 5
0 2 8 -5 17 -12 15 -12 16 1 8 12 -7 13 -6 4 6 -12 15 -12 78 0 97 4 7 3 12
-2 12 -10 0 -9 50 2 68 4 7 3 12 -1 12 -5 0 -9 22 -8 50 0 27 4 50 9 50 5 0 2
8 -5 17 -12 15 -12 16 1 8 12 -7 13 -6 4 6 -12 15 -12 78 0 97 4 7 3 12 -1 12
-5 0 -9 22 -8 50 0 27 4 50 9 50 5 0 2 8 -5 17 -12 14 -12 16 0 8 11 -6 12 -5
5 6 -11 18 -12 129 0 129 5 0 2 8 -5 17 -12 14 -12 16 0 8 11 -6 12 -5 5 6
-12 19 -11 99 1 99 6 0 6 3 0 8 -14 9 -13 65 0 74 7 5 6 8 -1 8 -12 0 -12 49
0 68 4 7 3 12 -1 12 -5 0 -9 22 -8 50 0 27 4 50 9 50 5 0 2 8 -5 17 -12 15
-12 16 1 8 12 -7 13 -6 4 6 -12 15 -12 78 0 97 4 7 3 12 -1 12 -5 0 -8 16 -8
35 0 19 5 35 10 35 6 0 6 3 0 8 -14 9 -13 65 0 74 7 5 6 8 0 8 -6 0 -11 22
-10 50 0 27 4 50 9 50 5 0 2 8 -5 17 -12 14 -12 16 0 8 11 -6 12 -5 5 6 -11
18 -12 129 0 129 5 0 2 8 -5 17 -12 15 -12 16 1 8 12 -7 13 -6 4 6 -12 15 -12
78 0 97 4 7 3 12 -1 12 -5 0 -9 22 -8 50 0 27 4 50 9 50 5 0 2 8 -5 17 -12 15
-12 16 1 8 12 -7 13 -6 4 6 -12 15 -12 78 0 97 4 7 3 12 -2 12 -10 0 -9 50 2
68 4 7 3 12 -1 12 -5 0 -9 22 -8 50 0 27 4 50 9 50 5 0 2 8 -5 17 -12 15 -12
16 1 8 12 -7 13 -6 4 6 -12 15 -12 78 0 97 4 7 3 12 -1 12 -5 0 -9 22 -8 50 0
27 4 50 9 50 5 0 2 8 -5 17 -12 14 -12 16 0 8 11 -6 12 -5 5 6 -11 18 -12 129
0 129 5 0 2 8 -5 17 -12 14 -12 16 0 8 11 -6 12 -5 5 6 -12 19 -11 99 1 99 6
0 6 3 0 8 -14 9 -13 65 0 74 7 5 6 8 -1 8 -12 0 -12 49 0 68 4 7 3 12 -1 12
-5 0 -9 22 -8 50 0 27 4 50 9 50 5 0 2 8 -5 17 -12 15 -12 16 1 8 12 -7 13 -6
4 6 -12 15 -12 78 0 97 4 7 3 12 -1 12 -5 0 -8 16 -8 35 0 19 5 35 10 35 6 0
6 3 0 8 -14 9 -13 65 0 74 7 5 6 8 0 8 -6 0 -11 22 -10 50 0 27 4 50 9 50 5 0
2 8 -5 17 -12 14 -12 16 0 8 11 -6 12 -5 5 6 -11 18 -12 129 0 129 5 0 2 8 -5
17 -12 15 -12 16 1 8 12 -7 13 -6 4 6 -12 15 -12 78 0 97 4 7 3 12 -1 12 -5 0
-9 22 -8 50 0 27 4 50 9 50 5 0 2 8 -5 17 -12 15 -12 16 1 8 12 -7 13 -6 4 6
-12 15 -12 78 0 97 4 7 3 12 -2 12 -10 0 -9 50 2 68 4 7 3 12 -1 12 -5 0 -9
22 -8 50 0 27 4 50 9 50 5 0 2 8 -5 17 -12 15 -12 16 1 8 12 -7 13 -6 4 6 -12
15 -12 78 0 97 4 7 3 12 -1 12 -5 0 -9 22 -8 50 0 27 4 50 9 50 5 0 2 8 -5 17
-12 14 -12 16 0 8 11 -6 12 -5 5 6 -11 18 -12 129 0 129 5 0 2 8 -5 17 -12 14
-12 16 0 8 11 -6 12 -5 5 6 -12 19 -11 99 1 99 6 0 6 3 0 8 -14 9 -13 65 0 74
7 5 6 8 -1 8 -12 0 -12 49 0 68 4 7 3 12 -1 12 -5 0 -9 22 -8 50 0 27 4 50 9
50 5 0 2 8 -5 17 -12 15 -12 16 1 8 12 -7 13 -6 4 6 -12 15 -12 78 0 97 4 7 3
12 -1 12 -5 0 -8 16 -8 35 0 19 5 35 10 35 6 0 6 3 0 8 -14 9 -13 65 0 74 7 5
6 8 0 8 -6 0 -11 22 -10 50 0 27 4 50 9 50 5 0 2 8 -5 17 -12 14 -12 16 0 8
11 -6 12 -5 5 6 -11 18 -12 129 0 129 5 0 2 8 -5 17 -12 15 -12 16 1 8 12 -7
13 -6 4 6 -12 15 -12 78 0 97 4 7 3 12 -1 12 -5 0 -9 22 -8 50 0 27 4 50 9 50
5 0 2 8 -5 17 -12 15 -12 16 1 8 12 -7 13 -6 4 6 -12 15 -12 78 0 97 4 7 3 12
-2 12 -10 0 -9 56 1 66 4 4 2 13 -5 21 -6 7 -8 16 -5 20 4 3 2 15 -4 26 -8 14
-8 18 0 12 14 -8 4 42 -11 62 -5 7 -5 14 2 18 6 3 7 12 3 18 -4 7 -8 23 -9 37
-1 14 -3 27 -4 30 -1 3 -2 9 -1 14 1 5 -4 13 -11 17 -10 7 -10 9 1 9 11 0 9 4
-5 15 -14 10 -15 14 -5 15 11 0 10 4 -4 13 -14 11 -15 16 -5 22 9 6 11 4 5 -5
-6 -9 -4 -11 4 -6 9 6 9 12 -3 25 -9 10 -16 27 -16 38 0 12 -5 23 -10 25 -6 2
-12 13 -13 26 0 12 -5 22 -10 22 -5 0 -4 7 3 16 11 12 11 15 0 12 -7 -2 -18
12 -24 30 -7 19 -15 30 -21 25 -5 -4 -4 -1 2 7 10 13 8 18 -8 28 -11 7 -17 17
-14 22 3 5 1 11 -5 15 -6 4 -8 11 -5 16 4 5 1 9 -5 9 -7 0 -9 7 -6 16 3 8 2
12 -4 9 -11 -7 -31 35 -23 48 2 4 -1 6 -9 5 -7 -2 -12 3 -10 10 1 6 -5 12 -13
12 -9 0 -12 6 -8 17 4 11 3 14 -5 9 -7 -4 -12 -1 -12 8 0 9 -4 16 -8 16 -5 0
-13 10 -18 23 -6 12 -9 16 -7 10 5 -24 -6 -13 -23 22 -9 19 -21 35 -26 35 -5
0 -6 5 -3 10 3 6 -1 10 -9 10 -8 0 -18 9 -21 21 -4 11 -9 18 -13 15 -3 -3 -12
3 -19 14 -8 11 -19 18 -24 14 -5 -3 -9 -2 -8 3 1 4 1 15 0 23 -1 13 -2 13 -11
0 -6 -10 -10 -11 -10 -2 0 15 -30 46 -54 55 -9 4 -15 11 -12 16 3 5 -8 14 -24
20 -17 5 -30 15 -30 20 0 6 -11 13 -25 17 -14 3 -22 10 -19 15 3 5 -2 9 -10 9
-9 0 -16 4 -16 10 0 5 -7 7 -15 4 -9 -4 -15 0 -15 10 0 9 -6 16 -14 16 -8 0
-17 6 -19 13 -4 9 -6 9 -6 -1 -1 -10 -5 -10 -17 2 -8 9 -20 14 -25 11 -5 -4
-9 -1 -9 4 0 6 -7 11 -15 11 -8 0 -15 5 -15 11 0 6 -7 8 -16 5 -8 -3 -12 -2
-9 3 6 10 -33 26 -42 17 -3 -3 -12 1 -20 9 -8 8 -23 15 -34 15 -10 0 -19 5
-19 12 0 6 -3 8 -7 5 -3 -4 -13 -1 -21 6 -13 10 -14 9 -7 -3 7 -11 2 -10 -19
4 -18 11 -25 13 -21 5 5 -8 -1 -6 -12 4 -11 9 -23 14 -27 10 -4 -4 -11 -1 -16
7 -7 11 -10 11 -10 2 0 -9 -7 -8 -25 4 -20 13 -25 13 -25 3 -1 -9 -4 -8 -11 4
-8 14 -14 16 -25 6 -8 -6 -14 -7 -14 -2 0 5 -10 9 -22 8 -13 -1 -28 2 -34 7
-8 5 -18 3 -28 -7 -9 -10 -16 -12 -16 -5 0 6 -8 10 -17 9 -10 -1 -20 0 -23 1
-15 8 -60 4 -60 -4 0 -6 -5 -5 -12 2 -8 8 -17 8 -31 1 -14 -8 -18 -8 -13 0 4
6 2 11 -3 11 -6 0 -11 -6 -11 -12 0 -9 -4 -8 -10 2 -8 12 -11 13 -19 1 -6 -9
-11 -10 -15 -2 -4 6 -12 11 -17 11 -6 0 -7 -5 -3 -12 4 -7 3 -8 -5 -4 -19 12
-81 15 -81 4 0 -7 -5 -6 -14 1 -11 9 -15 9 -19 -1 -4 -10 -6 -10 -6 0 -1 6 -6
12 -12 12 -5 0 -7 -5 -3 -11 4 -8 1 -8 -13 -1 -12 7 -24 7 -37 0 -14 -8 -17
-7 -12 1 4 6 2 11 -3 11 -6 0 -11 -5 -11 -12 0 -6 -7 -3 -16 8 -8 10 -13 14
-9 7 4 -9 -7 -12 -39 -11 -24 0 -50 -3 -56 -7 -9 -5 -11 -4 -6 3 4 7 3 12 -3
12 -5 0 -12 -6 -14 -12 -4 -10 -6 -10 -6 0 -1 6 -6 12 -12 12 -5 0 -7 -5 -3
-11 4 -8 1 -8 -13 -1 -12 7 -25 7 -35 1 -12 -7 -20 -5 -27 8 -10 17 -10 17
-11 -1 0 -17 -2 -17 -24 -2 -18 11 -27 13 -32 4 -4 -7 -3 -8 4 -4 7 4 12 2 12
-4 0 -7 -7 -9 -15 -6 -8 3 -22 9 -32 13 -11 4 -14 3 -8 -6 6 -10 3 -11 -12 -3
-12 7 -24 7 -37 0 -14 -8 -17 -7 -12 1 4 6 3 11 -3 11 -5 0 -12 -6 -14 -12 -4
-10 -6 -10 -6 0 -1 6 -6 12 -12 12 -5 0 -7 -6 -3 -12 4 -7 -2 -5 -14 5 -20 19
-21 18 -15 -5 3 -17 2 -19 -5 -9 -8 11 -32 14 -91 14 -44 -1 -86 -5 -92 -9 -8
-4 -9 -3 -5 4 4 7 2 12 -3 12 -6 0 -11 -6 -11 -12 0 -9 -4 -8 -10 2 -8 12 -11
13 -19 1 -6 -9 -11 -10 -15 -2 -4 6 -12 11 -17 11 -6 0 -7 -5 -3 -12 4 -7 3
-8 -5 -4 -19 12 -81 15 -81 4 0 -7 -5 -6 -14 1 -11 9 -15 9 -19 -1 -4 -10 -6
-10 -6 0 -1 6 -6 12 -12 12 -5 0 -7 -5 -3 -11 4 -8 1 -8 -13 -1 -12 7 -24 7
-37 0 -14 -8 -17 -7 -12 1 4 6 2 11 -3 11 -6 0 -11 -5 -11 -12 0 -6 -7 -3 -16
8 -8 10 -13 14 -9 7 4 -9 -7 -12 -39 -11 -24 0 -50 -3 -56 -7 -9 -5 -11 -4 -6
3 4 7 3 12 -3 12 -5 0 -12 -6 -14 -12 -4 -10 -6 -10 -6 0 -1 6 -6 12 -12 12
-5 0 -7 -5 -3 -11 4 -8 1 -8 -13 -1 -12 7 -25 7 -35 1 -12 -7 -20 -5 -27 8
-10 17 -10 17 -11 -1 0 -17 -2 -17 -24 -2 -18 11 -27 13 -32 4 -4 -7 -3 -8 4
-4 7 4 12 2 12 -4 0 -7 -7 -9 -15 -6 -8 3 -22 9 -32 13 -11 4 -14 3 -8 -6 6
-10 3 -11 -12 -3 -12 7 -24 7 -37 0 -14 -8 -17 -7 -12 1 4 6 3 11 -3 11 -5 0
-12 -6 -14 -12 -4 -10 -6 -10 -6 0 -1 6 -6 12 -12 12 -5 0 -7 -6 -3 -12 4 -7
-2 -5 -14 5 -20 19 -21 18 -15 -5 3 -17 2 -19 -5 -9 -8 11 -32 14 -91 14 -44
-1 -86 -5 -92 -9 -8 -4 -9 -3 -5 4 4 7 2 12 -3 12 -6 0 -11 -6 -11 -12 0 -9
-4 -8 -10 2 -8 12 -11 13 -19 1 -6 -9 -11 -10 -15 -2 -4 6 -12 11 -17 11 -6 0
-7 -5 -3 -12 4 -7 3 -8 -5 -4 -19 12 -81 15 -81 4 0 -7 -5 -6 -14 1 -11 9 -15
9 -19 -1 -4 -10 -6 -10 -6 0 -1 6 -6 12 -12 12 -5 0 -7 -5 -3 -11 4 -8 1 -8
-13 -1 -12 7 -24 7 -37 0 -14 -8 -17 -7 -12 1 4 6 2 11 -3 11 -6 0 -11 -5 -11
-12 0 -6 -7 -3 -16 8 -8 10 -13 14 -9 7 4 -9 -7 -12 -39 -11 -24 0 -50 -3 -56
-7 -9 -5 -11 -4 -6 3 4 7 3 12 -3 12 -5 0 -12 -6 -14 -12 -4 -10 -6 -10 -6 0
-1 6 -6 12 -12 12 -5 0 -7 -5 -3 -11 4 -8 1 -8 -13 -1 -12 7 -25 7 -35 1 -12
-7 -20 -5 -27 8 -10 17 -10 17 -11 -1 0 -17 -2 -17 -24 -2 -18 11 -27 13 -32
4 -4 -7 -3 -8 4 -4 7 4 12 2 12 -4 0 -7 -7 -9 -15 -6 -8 3 -22 9 -32 13 -11 4
-14 3 -8 -6 6 -10 3 -11 -12 -3 -12 7 -24 7 -37 0 -14 -8 -17 -7 -12 1 4 6 3
11 -3 11 -5 0 -12 -6 -14 -12 -4 -10 -6 -10 -6 0 -1 6 -6 12 -12 12 -5 0 -7
-6 -3 -12 4 -7 -2 -5 -14 5 -20 19 -21 18 -15 -5 3 -17 2 -19 -5 -9 -8 11 -32
14 -91 14 -44 -1 -86 -5 -92 -9 -8 -4 -9 -3 -5 4 4 7 2 12 -3 12 -6 0 -11 -6
-11 -12 0 -9 -4 -8 -10 2 -8 12 -11 13 -19 1 -6 -9 -11 -10 -15 -2 -4 6 -12
11 -17 11 -6 0 -7 -5 -3 -12 4 -7 3 -8 -5 -4 -19 12 -81 15 -81 4 0 -7 -5 -6
-14 1 -11 9 -15 9 -19 -1 -4 -10 -6 -10 -6 0 -1 6 -6 12 -12 12 -5 0 -7 -5 -3
-11 4 -8 1 -8 -13 -1 -12 7 -24 7 -37 0 -14 -8 -17 -7 -12 1 4 6 2 11 -3 11
-6 0 -11 -5 -11 -12 0 -6 -7 -3 -16 8 -8 10 -13 14 -9 7 4 -9 -7 -12 -39 -11
-24 0 -50 -3 -56 -7 -9 -5 -11 -4 -6 3 4 7 3 12 -3 12 -5 0 -12 -6 -14 -12 -4
-10 -6 -10 -6 0 -1 6 -6 12 -12 12 -5 0 -7 -5 -3 -11 4 -8 1 -8 -13 -1 -12 7
-25 7 -35 1 -12 -7 -20 -5 -27 8 -10 17 -10 17 -11 -1 0 -17 -2 -17 -24 -2
-18 11 -27 13 -32 4 -4 -7 -3 -8 4 -4 7 4 12 2 12 -4 0 -7 -6 -10 -12 -7 -49
20 -51 20 -43 8 6 -10 3 -11 -12 -3 -12 7 -24 7 -37 0 -14 -8 -17 -7 -12 1 4
6 3 11 -3 11 -5 0 -12 -6 -14 -12 -4 -10 -6 -10 -6 0 -1 6 -6 12 -12 12 -5 0
-7 -6 -3 -12 4 -7 -2 -5 -14 5 -20 19 -21 18 -15 -5 3 -17 2 -19 -5 -9 -8 11
-32 14 -91 14 -44 -1 -86 -5 -92 -9 -8 -4 -9 -3 -5 4 4 7 2 12 -3 12 -6 0 -11
-6 -11 -12 0 -9 -4 -8 -10 2 -8 12 -11 13 -19 1 -6 -9 -11 -10 -15 -2 -4 6
-12 11 -17 11 -6 0 -7 -5 -3 -12 4 -7 3 -8 -5 -4 -19 12 -81 15 -81 4 0 -7 -5
-6 -14 1 -11 9 -15 9 -19 -1 -4 -10 -6 -10 -6 0 -1 6 -6 12 -12 12 -5 0 -7 -5
-3 -11 4 -8 1 -8 -13 -1 -12 7 -24 7 -37 0 -14 -8 -17 -7 -12 1 4 6 2 11 -3
11 -6 0 -11 -5 -11 -12 0 -6 -7 -3 -16 8 -8 10 -13 14 -9 7 4 -9 -7 -12 -39
-11 -24 0 -50 -3 -56 -7 -9 -5 -11 -4 -6 3 4 7 3 12 -3 12 -5 0 -12 -6 -14
-12 -4 -10 -6 -10 -6 0 -1 6 -6 12 -12 12 -5 0 -7 -5 -3 -11 4 -8 1 -8 -13 -1
-12 7 -25 7 -35 1 -12 -7 -20 -5 -27 8 -10 17 -10 17 -11 -1 0 -17 -2 -17 -24
-2 -18 11 -27 13 -32 4 -4 -7 -3 -8 4 -4 7 4 12 2 12 -4 0 -7 -7 -9 -15 -6 -8
3 -22 9 -32 13 -11 4 -14 3 -8 -6 6 -10 3 -11 -12 -3 -12 7 -24 7 -37 0 -14
-8 -17 -7 -12 1 4 6 3 11 -3 11 -5 0 -12 -6 -14 -12 -4 -10 -6 -10 -6 0 -1 6
-6 12 -12 12 -5 0 -7 -6 -3 -12 4 -7 -2 -5 -14 5 -20 19 -21 18 -15 -5 3 -17
2 -19 -5 -9 -8 11 -32 14 -91 14 -44 -1 -86 -5 -92 -9 -8 -4 -9 -3 -5 4 4 7 2
12 -3 12 -6 0 -11 -6 -11 -12 0 -9 -4 -8 -10 2 -8 12 -11 13 -19 1 -6 -9 -11
-10 -15 -2 -4 6 -12 11 -17 11 -6 0 -7 -5 -3 -12 4 -7 3 -8 -5 -4 -19 12 -81
15 -81 4 0 -7 -5 -6 -14 1 -11 9 -15 9 -19 -1 -4 -10 -6 -10 -6 0 -1 6 -6 12
-12 12 -5 0 -7 -5 -3 -11 4 -8 1 -8 -13 -1 -12 7 -24 7 -37 0 -14 -8 -17 -7
-12 1 4 6 2 11 -3 11 -6 0 -11 -5 -11 -12 0 -6 -7 -3 -16 8 -8 10 -13 14 -9 7
4 -9 -7 -12 -39 -11 -24 0 -50 -3 -56 -7 -9 -5 -11 -4 -6 3 4 7 3 12 -3 12 -5
0 -12 -6 -14 -12 -4 -10 -6 -10 -6 0 -1 6 -6 12 -12 12 -5 0 -7 -5 -3 -11 4
-8 1 -8 -13 -1 -12 7 -25 7 -35 1 -12 -7 -20 -5 -27 8 -10 17 -10 17 -11 -1 0
-17 -2 -17 -24 -2 -18 11 -27 13 -32 4 -4 -7 -3 -8 4 -4 7 4 12 2 12 -4 0 -7
-7 -9 -15 -6 -8 3 -22 9 -32 13 -11 4 -14 3 -8 -6 6 -10 3 -11 -12 -3 -12 7
-24 7 -37 0 -14 -8 -17 -7 -12 1 4 6 3 11 -3 11 -5 0 -12 -6 -14 -12 -4 -10
-6 -10 -6 0 -1 6 -6 12 -12 12 -5 0 -7 -6 -3 -12 4 -7 -2 -5 -14 5 -20 19 -21
18 -15 -5 3 -17 2 -19 -5 -9 -8 11 -32 14 -91 14 -44 -1 -86 -5 -92 -9 -8 -4
-9 -3 -5 4 4 7 2 12 -3 12 -6 0 -11 -6 -11 -12 0 -9 -4 -8 -10 2 -8 12 -11 13
-19 1 -6 -9 -11 -10 -15 -2 -4 6 -12 11 -17 11 -6 0 -7 -5 -3 -12 4 -7 3 -8
-5 -4 -19 12 -81 15 -81 4 0 -7 -5 -6 -14 1 -11 9 -15 9 -19 -1 -4 -10 -6 -10
-6 0 -1 6 -6 12 -12 12 -5 0 -7 -5 -3 -11 4 -8 1 -8 -13 -1 -12 7 -24 7 -37 0
-14 -8 -17 -7 -12 1 4 6 2 11 -3 11 -6 0 -11 -5 -11 -12 0 -6 -7 -3 -16 8 -8
10 -13 14 -9 7 4 -9 -7 -12 -39 -11 -24 0 -50 -3 -56 -7 -9 -5 -11 -4 -6 3 4
7 3 12 -3 12 -5 0 -12 -6 -14 -12 -4 -10 -6 -10 -6 0 -1 6 -6 12 -12 12 -5 0
-7 -5 -3 -11 4 -8 1 -8 -13 -1 -12 7 -25 7 -35 1 -12 -7 -20 -5 -27 8 -10 17
-10 17 -11 -1 0 -17 -2 -17 -24 -2 -18 11 -27 13 -32 4 -4 -7 -3 -8 4 -4 7 4
12 2 12 -4 0 -7 -7 -9 -15 -6 -8 3 -22 9 -32 13 -11 4 -14 3 -8 -6 6 -10 3
-11 -12 -3 -12 7 -24 7 -37 0 -14 -8 -17 -7 -12 1 4 6 3 11 -3 11 -5 0 -12 -6
-14 -12 -4 -10 -6 -10 -6 0 -1 6 -6 12 -12 12 -5 0 -7 -6 -3 -12 4 -7 -2 -5
-14 5 -20 19 -21 18 -15 -5z"/>
</g>
</svg>
