<?xml version="1.0" standalone="no"?>
<!DOCTYPE svg PUBLIC "-//W3C//DTD SVG 20010904//EN"
 "http://www.w3.org/TR/2001/REC-SVG-20010904/DTD/svg10.dtd">
<svg version="1.0" xmlns="http://www.w3.org/2000/svg"
 width="1000.000000pt" height="1000.000000pt" viewBox="0 0 1000.000000 1000.000000"
 preserveAspectRatio="xMidYMid meet">
<metadata>
Created by potrace 1.14, written by Peter Selinger 2001-2017
</metadata>
<g transform="translate(0.000000,1000.000000) scale(0.100000,-0.100000)"
fill="#000000" stroke="none">
<path d="M1390 9830 c-31 -4 -67 -13 -80 -20 -14 -7 -27 -13 -30 -12 -10 4
-75 -11 -85 -18 -5 -4 -26 -11 -45 -14 -19 -4 -44 -11 -55 -16 -18 -8 -89 -38
-125 -53 -8 -4 -33 -18 -55 -32 -22 -14 -47 -28 -55 -32 -8 -4 -19 -11 -25
-15 -5 -4 -46 -34 -90 -67 -65 -47 -212 -190 -269 -261 -123 -152 -256 -449
-272 -607 -4 -35 -11 -66 -15 -69 -12 -7 -12 -7191 0 -7198 4 -3 11 -34 14
-70 6 -59 26 -140 47 -191 5 -11 12 -31 16 -45 21 -79 166 -331 215 -376 10
-9 19 -22 19 -28 0 -13 167 -178 225 -221 112 -86 252 -165 350 -200 28 -9 59
-21 70 -25 74 -28 161 -52 230 -63 63 -9 848 -12 3625 -12 3649 0 3648 0 3738
37 15 6 32 10 39 9 6 -1 14 3 18 9 3 5 17 10 30 10 13 0 26 4 29 9 3 5 22 12
41 15 36 7 217 97 246 122 8 8 19 14 23 14 4 0 12 5 19 10 7 6 41 32 77 59
226 168 410 433 497 716 9 28 19 59 24 70 32 76 33 139 33 3745 0 2789 -3
3601 -13 3655 -31 178 -124 400 -230 549 -31 43 -62 88 -70 100 -25 36 -172
179 -241 232 -80 63 -215 142 -295 174 -33 13 -64 27 -70 31 -5 4 -26 10 -45
14 -19 4 -39 11 -45 15 -5 4 -28 11 -50 15 -48 10 -41 8 -90 26 -34 12 -547
14 -3630 15 -1975 1 -3615 -2 -3645 -6z"/>
</g>
</svg>
